<svg xmlns="http://www.w3.org/2000/svg" version="1.1" xmlns:xlink="http://www.w3.org/1999/xlink" xmlns:svgjs="http://svgjs.dev/svgjs" viewBox="0 0 6.4585435022600235 5.0928194001500335"><g transform="matrix(1,0,0,1,3.2282939990127004,4.8030630049567655)"><rect width="6.4585435022600235" height="6.4585435022600235" x="-3.2282939990127004" y="-5.4859250560117605" fill="#212121"></rect><g transform="matrix(1,0,0,1,0,0)"><path d=" M -2.6063401834430375 -0.7332826587284486 L -2.127466903276706 -0.8936116378393312 Q -2.104708569169791 -0.901231232886185 -2.0772068227274016 -0.9088571061226418 Q -2.049705076285012 -0.9164829793590985 -2.023297778948014 -0.914778676758214 Q -1.996890481611016 -0.9130743741573294 -1.974735722809991 -0.8988734353690517 Q -1.9525809640089662 -0.8846724965807741 -1.9405166051847809 -0.848638467578159 Q -1.9300396619953568 -0.8173457581811512 -1.934592941819341 -0.7931482863536131 Q -1.9391462216433253 -0.768950814526075 -1.9522464331366083 -0.7513828192269165 Q -1.9653466446298913 -0.733814823927758 -1.9830398978146437 -0.722090968259069 Q -2.000733150999396 -0.7103671125903801 -2.0159053737373394 -0.7052873825591442 L -1.988284341692494 -0.6227884214215782 Q -1.915902986020047 -0.6491311500391438 -1.8913150914266539 -0.7079821095849675 Q -1.8667271968332606 -0.7668330691307913 -1.897205577020676 -0.8578664055584504 Q -1.9191119127803806 -0.9232966161158305 -1.95125064824146 -0.9547187688581674 Q -1.9833893837025396 -0.9861409216005044 -2.0194506181934337 -0.994631349563377 Q -2.055511852684328 -1.0031217775262495 -2.092185033400583 -0.9961162214346239 Q -2.128858214116838 -0.9891106653429982 -2.1592026595927245 -0.9789512052805264 L -2.635231147995692 -0.8195746755505005 L -2.6063401834430375 -0.7332826587284486 M -2.38820723832092 -1.2129912998290817 Q -2.332216058400159 -1.2119974330970549 -2.2683444859053936 -1.2323670729329947 Q -2.204472913410628 -1.2527367127689348 -2.1496650279571585 -1.2977710962122477 Q -2.0948571425036886 -1.3428054796555609 -2.0581026527686723 -1.4131642565374722 Q -2.021348163033656 -1.4835230334193836 -2.0195911486323945 -1.5825074407792994 Q -2.018402058078005 -1.649496888184495 -2.0339322140029528 -1.7042811400909215 Q -2.0494623699279004 -1.759065391997348 -2.0766859384089384 -1.8030554740518094 Q -2.1039095068899765 -1.8470455561062709 -2.1398358342414565 -1.87968830419883 Q -2.175762161592937 -1.9123310522913892 -2.215891956571227 -1.9335466021310799 Q -2.2560217515495173 -1.9547621519707707 -2.2968289439792473 -1.9659881506347188 Q -2.3376361364089777 -1.9772141492986668 -2.374630308856623 -1.9778708112466132 Q -2.4306214887773834 -1.97886467797864 -2.494519682702471 -1.9569952743948225 Q -2.5584178766275585 -1.935125870811005 -2.613261257321458 -1.8880918023705222 Q -2.6681046380153575 -1.8410577339300391 -2.7049034968009105 -1.7681993508016651 Q -2.7417023555864635 -1.6953409676732916 -2.74347711760794 -1.5953567178147905 Q -2.745234132009202 -1.4963723104548747 -2.7114997255939755 -1.4247623263478224 Q -2.6777653191787487 -1.3531523422407699 -2.6250901360343297 -1.3062100896243694 Q -2.572414952889911 -1.259267837007969 -2.5088066068150883 -1.2366353755946462 Q -2.4451982607402654 -1.2140029141813236 -2.38820723832092 -1.2129912998290817 M -2.3864679715398727 -1.3109758646904126 Q -2.4564569464408232 -1.3122181981054464 -2.5145661587734285 -1.334753047607588 Q -2.572675371106034 -1.3572878971097293 -2.614003220288551 -1.3955273908556873 Q -2.6553310694710675 -1.4337668846016454 -2.677922239556862 -1.485175921104528 Q -2.7005134096426566 -1.5365849576074102 -2.6994485524297707 -1.5965755075225108 Q -2.698401442837099 -1.6555662149390262 -2.673973394059076 -1.7076408770396923 Q -2.6495453452810533 -1.759715539140358 -2.6068509293419995 -1.7984639177854458 Q -2.564156513402946 -1.8372122964305335 -2.5052575319707833 -1.8591704381154246 Q -2.446358550538621 -1.8811285798003161 -2.3763695756376704 -1.8798862463852823 Q -2.30638060073672 -1.8786439129702486 -2.248298009834436 -1.8546092997202295 Q -2.1902154189321528 -1.8305746864702106 -2.1489230649900657 -1.7903355077270824 Q -2.1076307110479786 -1.7500963289839544 -2.0850661623925064 -1.6971875287331946 Q -2.062501613737034 -1.6442787284824345 -2.063548723329705 -1.585288021065919 Q -2.0646135805425914 -1.5252974711508185 -2.089015007890292 -1.4747225727980302 Q -2.1134164352379927 -1.4241476744452417 -2.156075355936617 -1.3873989807973242 Q -2.198734276635241 -1.3506502871494066 -2.2576066366370813 -1.3301919092123928 Q -2.316478996638922 -1.3097335312753788 -2.3864679715398727 -1.3109758646904126 M -1.9950642026342238 -2.5768202583242164 L -1.7678693123233644 -2.5826923803117574 L -1.7291815155871357 -2.6716432340664924 L -2.5011177976935794 -2.651885289647074 L -2.521059960959677 -2.6060343341033962 L -1.9972041898834827 -2.0554063915594623 L -1.9788573996786731 -2.0975892706596455 L -2.1326651291702947 -2.2604486650728393 L -1.9950642026342238 -2.5768202583242164 M -2.0447057711952947 -2.575510803935359 L -2.166352967118488 -2.2958199751189245 L -2.4179549772765165 -2.562280907498212 L -2.416359604215229 -2.565948983941706 L -2.0447057711952947 -2.575510803935359 M -1.624878303783656 -2.7863283375535395 L -2.142730243668633 -3.2573159895757193 L -2.0815018489057495 -3.3246367417607665 L -1.6043382757260207 -2.890655262397472 L -1.3614432151831537 -3.15771890568101 L -1.3207548484779055 -3.120712733022125 L -1.624878303783656 -2.7863283375535395 M -1.1904400812220008 -3.2189278532891885 L -1.5240980410961888 -3.8342914578455476 L -1.3219071424562425 -3.9439219303756374 Q -1.2489426007731312 -3.983484231332149 -1.1756539941287674 -3.9930774652043994 Q -1.1023653874844035 -4.00267069907665 -1.0366859681134186 -3.9853873582222237 Q -0.9710065487424335 -3.9681040173677973 -0.9163256793749365 -3.924950193374845 Q -0.8616448100074396 -3.881796369381892 -0.826372397106454 -3.816743645471649 Q -0.7896700215202933 -3.7490536489704493 -0.7839799134031091 -3.6787676427557354 Q -0.778289805285925 -3.608481636541022 -0.7994020543022863 -3.5435699816439916 Q -0.8205143033186477 -3.4786583267469617 -0.8661412903814916 -3.424342785218159 Q -0.9117682774443356 -3.3700272436893566 -0.9777000922182312 -3.3342781765599794 L -1.1904400812220008 -3.2189278532891885 M -1.131415598678909 -3.3009833860735185 L -1.0347156036771954 -3.353415351196605 Q -0.9626301528577363 -3.3925009979247243 -0.9251904194785213 -3.4440836148076754 Q -0.8877506860993064 -3.495666231690626 -0.8761971101934193 -3.551982436141804 Q -0.864643534287532 -3.6082986405929827 -0.8756766450527965 -3.6643122145446725 Q -0.8867097558180611 -3.720325788496362 -0.9124490841512127 -3.767796695133567 Q -0.9410483378547145 -3.8205421469526835 -0.9850844648034927 -3.859798605317532 Q -1.0291205917522706 -3.899055063682381 -1.0832233947095176 -3.918065237594508 Q -1.1373261976667643 -3.937075411506635 -1.1993507326047175 -3.931883392079607 Q -1.2613752675426704 -3.926691372652579 -1.3264279914529142 -3.891418959751593 L -1.4231279864546276 -3.8389869946285065 L -1.131415598678909 -3.3009833860735185 M -0.6095309976136603 -3.887189513350904 Q -0.6041514088149859 -3.831448504888936 -0.5766507736248406 -3.770307560636017 Q -0.5491501384346954 -3.709166616383098 -0.4981754208565 -3.6598353061651117 Q -0.44720070327830463 -3.610503995947125 -0.3731187925077214 -3.581988728166875 Q -0.29903688173713816 -3.5534734603866256 -0.20049474177758775 -3.5629838048699964 Q -0.13380460665344757 -3.5694200986112676 -0.08114171833203465 -3.5910792812746646 Q -0.02847883001062168 -3.6127384639380615 0.012130194663176774 -3.644787755896587 Q 0.05273921933697545 -3.6768370478551127 0.08108488504467826 -3.7162422916126023 Q 0.10943055075238106 -3.7556475353700915 0.12594514587959582 -3.7979295427465654 Q 0.1424597410068107 -3.8402115501230387 0.14897255258011444 -3.88203060421816 Q 0.15548536415341818 -3.9238496583132805 0.1519309929828655 -3.9606785389042236 Q 0.1465514041841911 -4.0164195473661914 0.11755770626738604 -4.077416395490575 Q 0.08856400835058098 -4.138413243614957 0.035598540470172524 -4.187552425661563 Q -0.017366927410236155 -4.236691607708169 -0.0939372760585857 -4.264966715274191 Q -0.17050762470693542 -4.293241822840215 -0.2700451398175924 -4.283635414271153 Q -0.3685872797771428 -4.274125069787782 -0.43589667250653774 -4.232466389415019 Q -0.5032060652359327 -4.1908077090422555 -0.543853893602387 -4.133136190516286 Q -0.5845017219688414 -4.075464671990316 -0.5997541862334334 -4.009695284477147 Q -0.6150066504980253 -3.9439258969639783 -0.6095309976136603 -3.887189513350904 M -0.5119842328052164 -3.896603793748584 Q -0.5187087188035594 -3.966280054326044 -0.5029279020676691 -4.026574878508127 Q -0.48714708533177875 -4.086869702690209 -0.4538552087642882 -4.132277862250083 Q -0.42056333219679765 -4.177686021809957 -0.37205670550409203 -4.205976606231182 Q -0.3235500788113864 -4.2342671906524085 -0.2638275697449922 -4.240031035793845 Q -0.2051004358297046 -4.2456988168495915 -0.15058573438288025 -4.227350865297344 Q -0.0960710329360559 -4.209002913745097 -0.052719022868340626 -4.170991688783401 Q -0.009367012800625352 -4.132980463821704 0.01914636468772668 -4.076960491452853 Q 0.04765974217607871 -4.020940519084004 0.05438422817442168 -3.9512642585065434 Q 0.061108714172764644 -3.8815879979290835 0.04383483471021454 -3.821149077618465 Q 0.02656095524766433 -3.7607101573078467 -0.008721671622039406 -3.7151098695765916 Q -0.04400429849174303 -3.6695095818453365 -0.09400398791110853 -3.6410749012955748 Q -0.14400367733047403 -3.612640220745813 -0.20273081124576164 -3.606972439690067 Q -0.26245332031215585 -3.60120859454863 -0.3154749590323203 -3.619700642229413 Q -0.3684965977524848 -3.638192689910196 -0.409857857517987 -3.676396043043274 Q -0.45121911728348907 -3.714599396176352 -0.47823943204518127 -3.7707634646737382 Q -0.5052597468068735 -3.826927533171124 -0.5119842328052164 -3.896603793748584 M 1.2806999943716724 -3.3244307077462856 Q 1.1460996450076801 -3.285665440417254 1.0215788406335726 -3.3496542619255862 Q 0.9522029639108556 -3.385305176765943 0.9111776061842736 -3.4367436839702346 Q 0.8701522484576915 -3.4881821911745265 0.855142711264196 -3.5464892558685848 Q 0.8401331740707008 -3.6047963205626425 0.8488664882087179 -3.6666427369840227 Q 0.857599802346735 -3.7284891534054023 0.8868518350362584 -3.7854129496907087 Q 0.917932119768877 -3.8458944832438466 0.962879017692192 -3.886320667420332 Q 1.007825915615507 -3.926746851596817 1.0612534374185913 -3.9453882011719132 Q 1.1146809592216758 -3.9640295507470094 1.1727781444267213 -3.9600336689606426 Q 1.2308753296317674 -3.9560377871742762 1.2869096916001157 -3.927242817495527 Q 1.3251553672293057 -3.907589108032253 1.3521596553735737 -3.8824690279802043 Q 1.3791639435178418 -3.857348947928155 1.3963103790618034 -3.8305487660605486 Q 1.413456814605765 -3.8037485841929426 1.4196521234316655 -3.777516578006764 Q 1.4258474322575658 -3.751284571820585 1.4224751492500216 -3.7294070100890524 L 1.4882932887049072 -3.695584347291791 Q 1.4904919163168477 -3.732681059229967 1.4828450371807769 -3.769215635174931 Q 1.4751981580447064 -3.8057502111198946 1.4536662801774294 -3.840425537153094 Q 1.4321344023101523 -3.8751008631862933 1.395815745542416 -3.9072560364961566 Q 1.3594970887746798 -3.9394112098060203 1.306131029757205 -3.9668349904524485 Q 1.2287502441818667 -4.0065994723897695 1.153729115250031 -4.017043619736149 Q 1.0787079863181952 -4.027487767082528 1.0120934061523599 -4.009439284893449 Q 0.9454788259865247 -3.9913908027043696 0.8906370379060191 -3.945930619245293 Q 0.8357952498255135 -3.9004704357862163 0.7987731459528354 -3.828426256112625 Q 0.7667787351986692 -3.7661658539255716 0.7563963171137644 -3.69673455410546 Q 0.7460138990288596 -3.6273032542853483 0.7642785668710306 -3.560015425455647 Q 0.7825432347132016 -3.492727596625946 0.8330744550117544 -3.431344815855284 Q 0.8836056753103072 -3.3699620350846224 0.9734385413230563 -3.323798670996468 Q 1.0303623376083626 -3.2945466383069446 1.0807635267440228 -3.282138168066363 Q 1.1311647158796831 -3.2697296978257806 1.1725171054541463 -3.2681549354685266 Q 1.2138694950286095 -3.2665801731112722 1.2452466131680333 -3.2729422841810853 Q 1.276623731307457 -3.279304395250899 1.2950423225895171 -3.286704090865208 L 1.2806999943716724 -3.3244307077462856 M 1.580831860011962 -3.3753009268560237 Q 1.5378912470022799 -3.3393550821121214 1.5030002958572637 -3.2821089335238005 Q 1.4681093447122475 -3.22486278493548 1.456229268921117 -3.1549280739601926 Q 1.444349193129986 -3.084993362984905 1.4627021076830817 -3.0077637020546204 Q 1.4810550222361774 -2.9305340411243352 1.544602140622719 -2.854621171696505 Q 1.5876087762984592 -2.8032457954170638 1.6352439308199314 -2.7720465637964695 Q 1.6828790853414033 -2.7408473321758753 1.7322716105312397 -2.725464599799234 Q 1.7816641357210763 -2.710081867422593 1.8301926965542596 -2.708973362366211 Q 1.878721257387443 -2.707864857309829 1.9229352688899808 -2.7181420741925 Q 1.9671492803925186 -2.728419291075171 2.0053277893783745 -2.7466854196090695 Q 2.0435062983642305 -2.7649515481429683 2.0718777748170565 -2.7887014812773323 Q 2.1148183878267384 -2.8246473260212346 2.1487465038446856 -2.8830436696008865 Q 2.182674619862633 -2.9414400131805376 2.1932709154843386 -3.0129083174775997 Q 2.2038672111060444 -3.0843766217746613 2.183909571341167 -3.163523274357164 Q 2.1639519315762903 -3.242669926939667 2.099762923105036 -3.319349593028385 Q 2.0362158047184944 -3.3952624624562153 1.9638037255728529 -3.427238872414266 Q 1.891391646427211 -3.459215282372317 1.8208410811729703 -3.460146809241006 Q 1.7502905159187292 -3.4610783361096953 1.68741489280063 -3.436483498897167 Q 1.6245392696825312 -3.411888661684639 1.580831860011962 -3.3753009268560237 M 1.643737088313791 -3.3001548540890804 Q 1.6974128545758935 -3.3450871600189584 1.756071096059113 -3.3661516017655675 Q 1.8147293375423326 -3.387216043512177 1.8710056754763142 -3.3854205522868344 Q 1.9272820134102961 -3.383625061061492 1.9780381292614844 -3.3596028483469906 Q 2.028794245112673 -3.335580635632489 2.067307650195425 -3.289572835979259 Q 2.1051791651934653 -3.2443318329869153 2.1208586731100247 -3.1889905912995937 Q 2.1365381810265847 -3.1336493496122717 2.1296873796154685 -3.0764014979493015 Q 2.1228365782043523 -3.0191536462863313 2.092742445490841 -2.9639667531302427 Q 2.0626483127773296 -2.9087798599741537 2.008972546515227 -2.863847554044276 Q 1.9552967802531247 -2.818915248114398 1.8956757036428362 -2.7990010013591196 Q 1.836054627032548 -2.7790867546038407 1.7784945089291408 -2.7824158391509575 Q 1.7209343908257342 -2.7857449236980742 1.669215439847477 -2.8109173314039064 Q 1.6174964888692198 -2.8360897391097386 1.57962497387118 -2.881330742102082 Q 1.5411115687884274 -2.927338541755313 1.5263948959989366 -2.981529588451304 Q 1.5116782232094454 -3.0357206351472947 1.5198128047899868 -3.0914348934884903 Q 1.527947386370528 -3.1471491518296864 1.5590043542111083 -3.2011858499944443 Q 1.5900613220516884 -3.2552225481592023 1.643737088313791 -3.3001548540890804 M 1.9995725145294336 -2.5311023008204896 Q 1.9595532026305091 -2.5152449783751143 1.9331087131370848 -2.4844888574325736 Q 1.9066642236436606 -2.4537327364900334 1.8950222795976277 -2.412200036856744 Q 1.883380335551595 -2.3706673372234546 1.8862018689145779 -2.320884921156317 Q 1.8890234022775605 -2.2711025050891798 1.90753613609145 -2.2171925923946105 Q 1.9263736547090922 -2.1623368917580312 1.9547171792717206 -2.1229047397071015 Q 1.9830607038343493 -2.0834725876561713 2.0183690888504398 -2.0607059904674054 Q 2.0536774738665304 -2.0379393932786396 2.094517754188444 -2.0329322480613006 Q 2.1353580345103573 -2.0279251028439615 2.1779184919008068 -2.0425404190128216 Q 2.236557344305426 -2.0626770768454734 2.2638476390984943 -2.1048255027960048 Q 2.2911379338915627 -2.1469739287465357 2.3010988209803385 -2.19955986534944 Q 2.311059708069114 -2.252145801952344 2.3103831192207855 -2.3095373712594327 Q 2.309706530372457 -2.366928940566521 2.3135197958381677 -2.417403775945034 Q 2.3173330613038785 -2.467878611323547 2.331855218879812 -2.5056424424234205 Q 2.346377376455746 -2.543406273523294 2.3870462579621754 -2.557372020084649 Q 2.409745168570415 -2.565166855374708 2.4330169557920254 -2.5620565628624044 Q 2.4562887430136358 -2.558946270350101 2.477606544591716 -2.544591781997059 Q 2.4989243461697956 -2.5302372936440176 2.5176528757314642 -2.504949111019366 Q 2.5363814052931324 -2.479660928394715 2.549048012639478 -2.4427751986563253 Q 2.570159024883387 -2.3812989824256765 2.5589275650488488 -2.3293340489610297 Q 2.547696105214311 -2.277369115496383 2.4944928950657412 -2.2506405085389085 L 2.5165782617209076 -2.1863269284822295 Q 2.5496237067527625 -2.20401869387313 2.5707039701632555 -2.233461392366037 Q 2.5917842335737484 -2.262904090858944 2.600779772664875 -2.299827393480189 Q 2.6097753117560014 -2.3367506961014333 2.606552300595132 -2.3784653481922384 Q 2.603329289434263 -2.4201800002830436 2.589038758069155 -2.461794669731483 Q 2.5740986570965423 -2.5053009150639425 2.549270632436696 -2.5406536970123272 Q 2.52444260777685 -2.5760064789607124 2.492458763792418 -2.5983287486477207 Q 2.460474919807986 -2.620651018334729 2.421363822968216 -2.626780627130578 Q 2.3822527261284465 -2.632910235926427 2.339692268737997 -2.6182949197575667 Q 2.2838907801594077 -2.5991326163361723 2.259585958359622 -2.559066725140785 Q 2.235281136559836 -2.519000833945397 2.2273599345223327 -2.468172647293884 Q 2.2194387324848295 -2.417344460642371 2.2205739320695392 -2.36169635805205 Q 2.2217091316542494 -2.306048255461729 2.2161523994717713 -2.256032030819597 Q 2.210595667289293 -2.206015806177465 2.1910197851995568 -2.1675738390008394 Q 2.1714439031098207 -2.1291318718242143 2.1222629301253013 -2.1122430620290866 Q 2.0607867138946525 -2.0911320497851777 2.0169857974561114 -2.1263134329180784 Q 1.9731848810175707 -2.1614948160509795 1.947526881521127 -2.236212063469768 Q 1.927065438884723 -2.2957967038163973 1.9303291173852948 -2.3370955948746923 Q 1.9335927958858663 -2.378394485932987 1.9488502224770472 -2.404780295259493 Q 1.9641076490682279 -2.431166104585999 1.9850059600212053 -2.445743847872004 Q 2.005904270974183 -2.4603215911580087 2.0216578811846 -2.4667887207638106 L 1.9995725145294336 -2.5311023008204896 M 2.034448545309205 -1.5348105589334278 L 2.6788561542839657 -1.5624480967295429 L 2.6903396583604913 -1.294694237496619 L 2.745289144397099 -1.297050926766055 L 2.7184228867255267 -1.9234750675833807 L 2.663473400688919 -1.9211183783139445 L 2.6749569047654442 -1.6533645190810207 L 2.0305492957906837 -1.6257269812849056 L 2.034448545309205 -1.5348105589334278 M 2.1175539419868175 -0.8154985469156096 L 1.8933588973613502 -0.7782348653290466 L 1.8673560055064433 -0.6847851482873026 L 2.629126569155108 -0.8112035344437328 L 2.642530121657637 -0.8593734916817451 L 2.047499751140437 -1.332189373566189 L 2.0351684828381105 -1.2878730129072176 L 2.2100384542542697 -1.1478712518578948 L 2.1175539419868175 -0.8154985469156096 M 2.166536395552091 -0.8236667317032984 L 2.2482980658175196 -1.1175034708551739 L 2.5343613463944386 -0.8884340501426506 L 2.5332890621942363 -0.8845804535636097 L 2.166536395552091 -0.8236667317032984" fill="#fcf7ee" fill-rule="nonzero"></path></g><g transform="matrix(1,0,0,1,0,0)"><g clip-path="url(#SvgjsClipPath1006)"><g clip-path="url(#SvgjsClipPath1003464a7792-374e-46f1-8e56-c812cd0d8aac)"><path d=" M -1.4381643791364769 -1.3132451333022008 L -0.9265293086938423 -0.42759483782882945 L -0.5813698577010827 -1.0257972303854048 L -0.8862052142048664 -1.5533399711310303 L -0.442270229005181 -2.3206076038844854 L 0.4455997413941897 -2.3206076038844854 L 0.8862052142048749 -1.5533399711310303 L 0.5817398035220942 -1.0257972303854048 L 0.9268992545148491 -0.42796478364982926 L 1.438534324957484 -1.3132451333022008 C 1.5268821413297882 -1.4613827233330772 1.5268821413297882 -1.6460371105709828 1.438534324957484 -1.7941747006018594 L 0.9268992545148451 -2.679085104433231 C 0.8427902444739941 -2.829021326288508 0.6833490146032906 -2.9208810553413502 0.5114500975321377 -2.9184400506200614 L -0.5114500975321375 -2.9184400506200614 C -0.6832171696159468 -2.9207446167970814 -0.8424838607492455 -2.8289036638886635 -0.9265293086938423 -2.679085104433231 L -1.4381643791364769 -1.7934348089598597 C -1.5262183260030076 -1.6454816382958868 -1.5262183260030076 -1.4611983039661736 -1.4381643791364769 -1.3132451333022006 Z" fill="#8fb0a1" transform="matrix(1,0,0,1,0,0)" fill-rule="evenodd"></path></g><g clip-path="url(#SvgjsClipPath1003464a7792-374e-46f1-8e56-c812cd0d8aac)"><path d=" M 0.0001849729105001252 -1.3110254583762022 L 0.6486999971230396 -0.1875 L -0.00018497291049990316 -0.37136307303686955 L -0.6486999971230393 -0.1875 L 0.0001849729105001252 -1.3110254583762022 Z" fill="#769687" transform="matrix(1,0,0,1,0,0)" fill-rule="evenodd"></path></g></g></g></g><defs><clipPath id="SvgjsClipPath1006"><path d=" M -1.5043846810954318 -2.9188099964410608 h 3.0087693621908635 v 2.7313099964410608 h -3.0087693621908635 Z"></path></clipPath><clipPath id="SvgjsClipPath1003464a7792-374e-46f1-8e56-c812cd0d8aac"><path d=" M -1.5043846810954318 -2.918809996441061 L 1.5043846810954318 -2.918809996441061 L 1.5043846810954318 -0.1875 L -1.5043846810954318 -0.1875 Z"></path></clipPath></defs></svg>